REM DIRINDEX 1\2,1\4,1\3\5,1\3\6,1\3\7
REM DIRNAME folder01,folder02,folder03,folder04,folder05,folder06,folder07
TITLE ""
FILE "CD2Track34.mp3" MP3
  TRACK 01 AUDIO
    TITLE "0:"
    INDEX 01 00:00:00
  TRACK 02 AUDIO
    TITLE "5:cjc081_1755"
    INDEX 01 00:00:27
  TRACK 03 AUDIO
    TITLE "0:"
    INDEX 01 00:01:62
  TRACK 04 AUDIO
    TITLE "6:cjc081_1756"
    INDEX 01 00:02:32
  TRACK 05 AUDIO
    TITLE "0:"
    INDEX 01 00:04:46
  TRACK 06 AUDIO
    TITLE "5:cjc081_1757"
    INDEX 01 00:05:16
  TRACK 07 AUDIO
    TITLE "0:"
    INDEX 01 00:06:35
  TRACK 08 AUDIO
    TITLE "6:cjc081_1758"
    INDEX 01 00:06:73
  TRACK 09 AUDIO
    TITLE "0:"
    INDEX 01 00:08:19
  TRACK 10 AUDIO
    TITLE "5:cjc081_1759"
    INDEX 01 00:08:66
  TRACK 11 AUDIO
    TITLE "0:"
    INDEX 01 00:10:10
  TRACK 12 AUDIO
    TITLE "6:cjc081_1760"
    INDEX 01 00:10:61
  TRACK 13 AUDIO
    TITLE "0:"
    INDEX 01 00:14:09
  TRACK 14 AUDIO
    TITLE "5:cjc081_1761"
    INDEX 01 00:14:54
  TRACK 15 AUDIO
    TITLE "0:"
    INDEX 01 00:15:56
  TRACK 16 AUDIO
    TITLE "6:cjc081_1762"
    INDEX 01 00:16:26
  TRACK 17 AUDIO
    TITLE "0:"
    INDEX 01 00:20:20
  TRACK 18 AUDIO
    TITLE "5:cjc081_1763"
    INDEX 01 00:20:65
  TRACK 19 AUDIO
    TITLE "0:"
    INDEX 01 00:22:11
  TRACK 20 AUDIO
    TITLE "6:cjc081_1764"
    INDEX 01 00:22:60
  TRACK 21 AUDIO
    TITLE "0:"
    INDEX 01 00:24:49
  TRACK 22 AUDIO
    TITLE "5:cjc081_1765"
    INDEX 01 00:25:21
  TRACK 23 AUDIO
    TITLE "0:"
    INDEX 01 00:26:62
  TRACK 24 AUDIO
    TITLE "6:cjc081_1766"
    INDEX 01 00:27:30
  TRACK 25 AUDIO
    TITLE "0:"
    INDEX 01 00:28:68
  TRACK 26 AUDIO
    TITLE "5:cjc081_1767"
    INDEX 01 00:29:34
  TRACK 27 AUDIO
    TITLE "0:"
    INDEX 01 00:30:55
  TRACK 28 AUDIO
    TITLE "6:cjc081_1768"
    INDEX 01 00:31:26
  TRACK 29 AUDIO
    TITLE "0:"
    INDEX 01 00:32:56
  TRACK 30 AUDIO
    TITLE "5:cjc081_1769"
    INDEX 01 00:33:19
  TRACK 31 AUDIO
    TITLE "0:"
    INDEX 01 00:34:53
  TRACK 32 AUDIO
    TITLE "6:cjc081_1770"
    INDEX 01 00:35:25
  TRACK 33 AUDIO
    TITLE "0:"
    INDEX 01 00:39:43
  TRACK 34 AUDIO
    TITLE "5:cjc081_1771"
    INDEX 01 00:40:17
  TRACK 35 AUDIO
    TITLE "0:"
    INDEX 01 00:41:45
  TRACK 36 AUDIO
    TITLE "6:cjc081_1772"
    INDEX 01 00:42:16
  TRACK 37 AUDIO
    TITLE "0:"
    INDEX 01 00:44:11
  TRACK 38 AUDIO
    TITLE "5:cjc081_1773"
    INDEX 01 00:44:54
  TRACK 39 AUDIO
    TITLE "0:"
    INDEX 01 00:45:59
  TRACK 40 AUDIO
    TITLE "6:cjc081_1774"
    INDEX 01 00:46:33
  TRACK 41 AUDIO
    TITLE "0:"
    INDEX 01 00:49:14
  TRACK 42 AUDIO
    TITLE "5:cjc081_1775"
    INDEX 01 00:49:59
  TRACK 43 AUDIO
    TITLE "0:"
    INDEX 01 00:51:22
  TRACK 44 AUDIO
    TITLE "6:cjc081_1776"
    INDEX 01 00:51:69
  TRACK 45 AUDIO
    TITLE "0:"
    INDEX 01 00:53:64
  TRACK 46 AUDIO
    TITLE "5:cjc081_1777"
    INDEX 01 00:54:30
  TRACK 47 AUDIO
    TITLE "0:"
    INDEX 01 00:55:38
  TRACK 48 AUDIO
    TITLE "6:cjc081_1778"
    INDEX 01 00:56:12
  TRACK 49 AUDIO
    TITLE "0:"
    INDEX 01 00:58:05
  TRACK 50 AUDIO
    TITLE "5:cjc081_1779"
    INDEX 01 00:58:54
  TRACK 51 AUDIO
    TITLE "0:"
    INDEX 01 01:00:31
  TRACK 52 AUDIO
    TITLE "6:cjc081_1780"
    INDEX 01 01:01:09
  TRACK 53 AUDIO
    TITLE "0:"
    INDEX 01 01:04:13
  TRACK 54 AUDIO
    TITLE "5:cjc081_1781"
    INDEX 01 01:04:60
  TRACK 55 AUDIO
    TITLE "0:"
    INDEX 01 01:06:06
  TRACK 56 AUDIO
    TITLE "6:cjc081_1782"
    INDEX 01 01:06:51
  TRACK 57 AUDIO
    TITLE "0:"
    INDEX 01 01:08:40
  TRACK 58 AUDIO
    TITLE "5:cjc081_1783"
    INDEX 01 01:09:12
  TRACK 59 AUDIO
    TITLE "0:"
    INDEX 01 01:10:26
  TRACK 60 AUDIO
    TITLE "6:cjc081_1784"
    INDEX 01 01:11:00
  TRACK 61 AUDIO
    TITLE "0:"
    INDEX 01 01:12:38
  TRACK 62 AUDIO
    TITLE "7:cjc081_1785"
    INDEX 01 01:14:02
  TRACK 63 AUDIO
    TITLE "0:"
    INDEX 01 01:24:73
